<?xml version="1.0" standalone="no"?>
<!DOCTYPE svg PUBLIC "-//W3C//DTD SVG 20010904//EN"
 "http://www.w3.org/TR/2001/REC-SVG-20010904/DTD/svg10.dtd">
<svg version="1.0" xmlns="http://www.w3.org/2000/svg"
 width="512.000000pt" height="512.000000pt" viewBox="0 0 512.000000 512.000000"
 preserveAspectRatio="xMidYMid meet">
<metadata>
Created by potrace 1.14, written by Peter Selinger 2001-2017
</metadata>
<g transform="translate(0.000000,512.000000) scale(0.100000,-0.100000)"
fill="#000000" stroke="none">
<path d="M1209 5101 c-23 -18 -24 -26 -29 -183 l-5 -163 -60 -1 c-162 -2 -290
-45 -415 -137 -116 -86 -194 -190 -250 -332 l-35 -90 -3 -1780 c-3 -2006 -8
-1858 75 -2025 85 -169 226 -289 418 -357 l80 -28 1570 0 1570 0 75 23 c201
64 352 192 439 375 76 159 71 21 70 1984 0 1672 -1 1761 -19 1828 -82 314
-349 530 -664 538 l-86 2 0 150 c0 169 -7 194 -58 209 -39 11 -74 -5 -91 -41
-6 -14 -11 -85 -11 -171 l0 -147 -127 1 c-71 1 -132 2 -138 3 -6 1 -10 55 -9
143 1 159 -6 190 -42 207 -36 16 -58 14 -85 -8 -23 -18 -24 -26 -29 -183 l-5
-163 -135 0 -135 0 -2 160 c-2 159 -2 160 -28 182 -34 30 -67 29 -102 -1 l-28
-24 -1 -154 c-1 -84 -2 -155 -3 -158 -1 -3 -61 -6 -133 -5 l-133 0 -5 160 c-3
88 -8 165 -12 171 -13 19 -66 37 -93 30 -42 -11 -50 -40 -55 -206 l-5 -155
-132 0 c-73 0 -134 2 -134 5 -1 3 -2 74 -3 158 l-1 154 -28 24 c-36 31 -71 31
-102 -1 -27 -26 -27 -26 -26 -231 1 -73 -3 -103 -12 -106 -6 -3 -68 -4 -137
-3 l-125 1 -2 49 c-1 28 -2 99 -2 158 -1 101 -3 110 -26 132 -34 35 -76 33
-107 -4 -24 -28 -25 -34 -24 -180 1 -129 -1 -151 -14 -152 -8 -1 -70 -2 -137
-3 l-123 -1 0 148 c0 170 -9 200 -61 211 -44 8 -44 8 -70 -13z m-27 -638 c3
-130 4 -135 28 -153 14 -11 36 -20 50 -20 14 0 36 9 50 20 24 18 25 23 28 153
l4 134 134 0 c74 0 134 -3 135 -6 1 -3 2 -62 3 -129 1 -122 1 -124 29 -148 36
-31 71 -31 102 1 24 23 25 29 25 153 l0 128 140 1 c96 0 140 -3 139 -11 -1 -6
-1 -64 0 -129 1 -111 2 -119 26 -142 32 -33 70 -32 104 3 27 27 27 29 27 150
-1 101 2 123 14 126 8 2 69 4 135 3 l120 -1 5 -133 c5 -129 6 -135 30 -153 32
-25 68 -25 100 0 24 18 25 24 30 153 l5 134 120 0 c66 1 127 -1 135 -3 13 -3
16 -25 15 -130 0 -126 0 -126 28 -150 36 -31 71 -31 102 1 26 25 26 23 27 201
l1 81 137 0 138 1 1 -126 c1 -68 6 -133 12 -143 14 -28 47 -42 83 -35 51 10
60 35 61 176 l1 125 136 1 136 1 4 -134 c3 -130 4 -135 28 -153 32 -25 71 -25
101 -1 23 18 24 26 27 155 l4 136 71 -4 c160 -10 269 -57 374 -162 76 -77 119
-148 149 -250 16 -55 18 -166 18 -1799 0 -1863 2 -1787 -50 -1901 -75 -165
-244 -294 -419 -320 -65 -9 -2985 -9 -3050 0 -173 26 -339 150 -414 310 -57
122 -55 29 -54 1906 0 1921 -5 1786 64 1922 43 86 153 194 240 236 76 37 168
59 251 59 l56 1 4 -135z"/>
<path d="M1273 3279 c-49 -18 -59 -95 -17 -128 27 -21 27 -21 1309 -21 l1282
0 20 23 c12 12 23 31 25 42 6 28 -19 74 -45 84 -29 11 -2545 11 -2574 0z"/>
<path d="M1295 2489 c-37 -6 -54 -22 -66 -64 -8 -27 16 -72 43 -81 34 -12
2537 -12 2572 -1 58 20 65 108 10 138 -20 10 -251 13 -1273 13 -686 1 -1265
-2 -1286 -5z"/>
<path d="M1256 1679 c-20 -16 -26 -29 -26 -59 0 -30 6 -43 26 -59 27 -21 27
-21 1305 -21 l1278 0 26 23 c37 31 37 82 1 114 l-27 23 -1278 0 c-1278 0
-1278 0 -1305 -21z"/>
</g>
</svg>
